Results
version=1
nRows=23
nColumns=27
inDegrees=yes
endheader
time	r_x	r_y	r_z	t_x	t_y	t_z	sternoclavicular_r2	sternoclavicular_r3	unrotscap_r3	unrotscap_r2	acromioclavicular_r2	acromioclavicular_r3	acromioclavicular_r1	unrothum_r1	unrothum_r3	unrothum_r2	elv_angle	shoulder_elv	shoulder1_r2	shoulder_rot	elbow_flexion	pro_sup	deviation	flexion	wrist_hand_r1	wrist_hand_r3
      3.75000000	     90.00024323	     -0.00007939	      9.99804505	     -0.40842597	      0.34441061	      0.29793087	     -3.37922832	      1.43144345	     -1.43124937	      3.37948109	     -0.68386768	      5.52858428	      2.48432976	     -2.48692500	     -5.53116062	      0.68455582	     -7.57275018	     13.96422529	      7.57265896	     -8.32137736	    100.25421439	     33.64080226	     -0.00038489	     -0.00001720	     -0.00068350	     -0.00002281
      3.75500000	     89.99976747	      0.00003819	      9.99974741	     -0.40057555	      0.34194591	      0.30017711	     -3.31181160	      1.40303472	     -1.40247129	      3.31199594	     -0.67052937	      5.41959852	      2.43569032	     -2.43641059	     -5.41945939	      0.67066176	    -17.24959360	     13.68581748	     17.24963746	     -8.53129356	    102.25847264	     32.55332608	      0.00000428	      0.00002771	      0.00001449	      0.00004765
      3.76000000	     89.99956745	     -0.00003987	      9.99979817	     -0.40050582	      0.34207366	      0.29995262	     -3.31428830	      1.40424813	     -1.40340473	      3.31437865	     -0.67108851	      5.42367697	      2.43744551	     -2.43821332	     -5.42333675	      0.67108527	    -17.25126171	     13.69590818	     17.25111505	     -8.52970231	    102.24775054	     32.55395501	      0.00006217	     -0.00002942	     -0.00005299	     -0.00006740
      3.76500000	     89.99974253	      0.00007369	      9.99963984	     -0.40078139	      0.34238800	      0.29986763	     -3.31534992	      1.40458886	     -1.40397047	      3.31561024	     -0.67121830	      5.42541890	      2.43825641	     -2.43911885	     -5.42538708	      0.67142122	    -17.25272125	     13.70061316	     17.25278449	     -8.52493091	    102.24285694	     32.55473172	      0.00001827	     -0.00002547	      0.00002924	     -0.00002903
      3.77000000	     89.99980495	     -0.00002512	      9.99950262	     -0.40084190	      0.34223479	      0.29968342	     -3.31711388	      1.40528346	     -1.40468580	      3.31724798	     -0.67157758	      5.42804695	      2.43938922	     -2.44045413	     -5.42825761	      0.67174381	    -17.25404444	     13.70781521	     17.25432570	     -8.52400131	    102.23513745	     32.55544665	      0.00020038	      0.00003442	     -0.00017282	      0.00003291
      3.77500000	     89.99977612	     -0.00005555	      9.99950999	     -0.40084276	      0.34223340	      0.29968348	     -3.31718000	      1.40533236	     -1.40467564	      3.31726189	     -0.67161658	      5.42813241	      2.43940110	     -2.44049952	     -5.42830753	      0.67172119	    -17.25419692	     13.70788743	     17.25420994	     -8.52400737	    102.23504107	     32.55545684	     -0.00011034	      0.00002323	      0.00000028	      0.00002546
      3.78000000	     89.99975276	      0.00008920	      9.99961167	     -0.40115864	      0.34213001	      0.29952423	     -3.31941289	      1.40629757	     -1.40573659	      3.31963807	     -0.67207203	      5.43201943	      2.44125886	     -2.44210468	     -5.43209943	      0.67221249	    -17.25661774	     13.71749240	     17.25645961	     -8.52559749	    102.22501686	     32.55637293	      0.00005471	      0.00002928	      0.00002011	      0.00003389
      3.78500000	     89.99988863	     -0.00011129	      9.99936744	     -0.40115903	      0.34213804	      0.29952475	     -3.31966551	      1.40628592	     -1.40579209	      3.31968127	     -0.67208931	      5.43193730	      2.44114578	     -2.44233501	     -5.43245734	      0.67223279	    -17.25650152	     13.71774572	     17.25674962	     -8.52554586	    102.22462432	     32.55641688	     -0.00012735	     -0.00000327	      0.00010114	      0.00000061
      3.79000000	     89.99967857	     -0.00007525	      9.99936640	     -0.40117614	      0.34249465	      0.29902503	     -3.32053393	      1.40686804	     -1.40606624	      3.32062564	     -0.67228736	      5.43357377	      2.44176735	     -2.44307815	     -5.43389061	      0.67240824	    -17.25951301	     13.72173238	     17.25948076	     -8.52027397	    102.21028191	     32.55857652	      0.00005081	     -0.00000095	     -0.00002134	     -0.00000133
      3.79500000	     89.99999809	      0.00014778	      9.99973333	     -0.40123808	      0.34358641	      0.30001597	     -3.40155091	      1.44083449	     -1.44074409	      3.40185580	     -0.68862952	      5.56638333	      2.50190447	     -2.50231793	     -5.56656836	      0.68891175	    -17.37169466	     14.05675788	     17.37179951	     -8.46155412	    101.62604097	     32.62882929	      0.00001501	     -0.00000864	     -0.00000806	     -0.00001170
      3.80000000	     89.99999948	      0.00002543	      9.99959569	     -0.40130255	      0.34334844	      0.29970042	     -3.40246805	      1.44122162	     -1.44106641	      3.40259093	     -0.68885627	      5.56761304	      2.50238167	     -2.50303778	     -5.56801649	      0.68901719	    -17.37313447	     14.06016509	     17.37314406	     -8.46211066	    101.62231553	     32.62941003	      0.00000960	      0.00000143	      0.00001715	      0.00000115
      3.80500000	     89.99999481	      0.00003868	      9.99954135	     -0.40143711	      0.34345452	      0.29953887	     -3.40284354	      1.44139986	     -1.44122969	      3.40300447	     -0.68891263	      5.56823168	      2.50263892	     -2.50336166	     -5.56869525	      0.68911922	    -17.37487233	     14.06183693	     17.37476549	     -8.45988068	    101.61975268	     32.63021632	      0.00001775	     -0.00000967	     -0.00003317	     -0.00001311
      3.81000000	     90.00004744	     -0.00004955	      9.99946826	     -0.40159641	      0.34337315	      0.29952170	     -3.40363651	      1.44168040	     -1.44154559	      3.40366249	     -0.68909534	      5.56931255	      2.50310842	     -2.50393394	     -5.56994519	      0.68922473	    -17.37647233	     14.06476230	     17.37632730	     -8.46004068	    101.61776393	     32.63042797	      0.00013339	      0.00000401	      0.00000932	      0.00000447
      3.81500000	     89.99998645	     -0.00008632	      9.99938311	     -0.40154983	      0.34309711	      0.29897326	     -3.40459341	      1.44214829	     -1.44192131	      3.40457003	     -0.68930572	      5.57079883	      2.50372758	     -2.50469232	     -5.57153316	      0.68939561	    -17.37885130	     14.06865805	     17.37878935	     -8.46229633	    101.60682719	     32.63147291	     -0.00006001	     -0.00000418	     -0.00003925	     -0.00000600
      3.82000000	     90.00021557	      0.00013731	      9.99927125	     -0.40159551	      0.34330788	      0.29910421	     -3.40451598	      1.44196066	     -1.44218151	      3.40490170	     -0.68908006	      5.57081220	      2.50391826	     -2.50469548	     -5.57188999	      0.68966019	    -17.38095893	     14.06907458	     17.38040084	     -8.45933987	    101.60342444	     32.63261218	     -0.00001310	     -0.00000364	      0.00018419	     -0.00000522
      3.82500000	     90.00015966	      0.00000429	      9.99927549	     -0.40159737	      0.34330972	      0.29910146	     -3.40463616	      1.44204384	     -1.44207228	      3.40479519	     -0.68919906	      5.57086547	      2.50382455	     -2.50478383	     -5.57185219	      0.68954738	    -17.38069136	     14.06915279	     17.38077621	     -8.45931971	    101.60327626	     32.63264097	      0.00017393	     -0.00000367	      0.00005494	     -0.00000515
      3.83000000	     90.00017420	      0.00013330	      9.99967598	     -0.40178225	      0.34294345	      0.29829723	     -3.40493622	      1.44209820	     -1.44231767	      3.40520745	     -0.68928104	      5.57170795	      2.50442825	     -2.50475296	     -5.57220419	      0.68961251	    -17.38270332	     14.07056023	     17.38274559	     -8.45809300	    101.59893577	     32.63374695	     -0.00000562	     -0.00000372	     -0.00005913	     -0.00000528
      3.83500000	     90.00013469	      0.00003109	      9.99963980	     -0.40190311	      0.34276251	      0.29823419	     -3.40538510	      1.44230996	     -1.44242815	      3.40547412	     -0.68944340	      5.57227569	      2.50462415	     -2.50507726	     -5.57281654	      0.68959577	    -17.38375016	     14.07206578	     17.38397366	     -8.45833500	    101.59923063	     32.63434867	      0.00011806	     -0.00000344	      0.00010572	     -0.00000484
      3.84000000	     90.00022695	      0.00020977	      9.99929243	     -0.40168861	      0.34293498	      0.29825409	     -3.40500085	      1.44215566	     -1.44242453	      3.40535815	     -0.68925723	      5.57166923	      2.50433347	     -2.50506522	     -5.57275794	      0.68968941	    -17.38499244	     14.07120958	     17.38528928	     -8.45618493	    101.59784161	     32.63502136	     -0.00007823	     -0.00000384	     -0.00026305	     -0.00000538
      3.84500000	     90.00015859	     -0.00017316	      9.99932740	     -0.40169157	      0.34292675	      0.29824475	     -3.40533654	      1.44230277	     -1.44221120	      3.40516213	     -0.68947971	      5.57177816	      2.50415222	     -2.50523355	     -5.57267108	      0.68947628	    -17.38543472	     14.07136869	     17.38510931	     -8.45626119	    101.59761558	     32.63506622	     -0.00002921	     -0.00000358	     -0.00015602	     -0.00000499
      3.85000000	     90.00017579	     -0.00000523	      9.99932960	     -0.40176609	      0.34292366	      0.29800486	     -3.40540790	      1.44233585	     -1.44242687	      3.40549361	     -0.68940289	      5.57209097	      2.50442908	     -2.50528836	     -5.57306982	      0.68963959	    -17.38761981	     14.07216257	     17.38747113	     -8.45576268	    101.59343774	     32.63583780	      0.00015307	     -0.00000212	      0.00027368	     -0.00000289
      3.85500000	     90.00031681	      0.00027414	      9.99974532	     -0.40220425	      0.34250198	      0.29748903	     -3.40524896	      1.44209237	     -1.44270733	      3.40570768	     -0.68926428	      5.57230284	      2.50494010	     -2.50487251	     -5.57295907	      0.68979570	    -17.38925294	     14.07217043	     17.38945545	     -8.45412028	    101.59019584	     32.63642985	     -0.00032284	     -0.00000538	     -0.00064126	     -0.00000712
      3.86000000	     90.00017031	      0.00002250	      9.99960579	     -0.40221063	      0.34249612	      0.29750019	     -3.40537586	      1.44226744	     -1.44253350	      3.40549850	     -0.68938933	      5.57216243	      2.50467288	     -2.50501747	     -5.57289996	      0.68964543	    -17.38956505	     14.07199547	     17.38932676	     -8.45381905	    101.59015866	     32.63648992	     -0.00021097	     -0.00000183	     -0.00021097	     -0.00000251
